<?xml version="1.0" encoding="iso-8859-1"?>
<!-- Generator: Adobe Illustrator 19.0.0, SVG Export Plug-In . SVG Version: 6.00 Build 0)  -->
<svg version="1.1" id="Layer_1" xmlns="http://www.w3.org/2000/svg" xmlns:xlink="http://www.w3.org/1999/xlink" x="0px" y="0px"
	 viewBox="0 0 512 512" style="enable-background:new 0 0 512 512;" xml:space="preserve">
<path style="fill:#57C3D9;" d="M33.391,122.435v317.217c0,27.619,22.468,50.087,50.087,50.087h345.043
	c27.619,0,50.087-22.468,50.087-50.087V122.435H33.391z"/>
<path style="fill:#3DB1CC;" d="M256,489.739h172.522c27.619,0,50.087-22.468,50.087-50.087V122.435H256V489.739z"/>
<g>
	<path style="fill:#DAE1E6;" d="M361.739,389.565c-27.619,0-50.087-22.468-50.087-50.087s22.468-50.087,50.087-50.087
		s50.087,22.468,50.087,50.087S389.358,389.565,361.739,389.565z"/>
	<path style="fill:#DAE1E6;" d="M395.13,256c-64.445,0-116.87-52.429-116.87-116.87s52.424-116.87,116.87-116.87
		S512,74.69,512,139.13S459.576,256,395.13,256z"/>
</g>
<g>
	<path style="fill:#2E8599;" d="M411.826,489.739v-50.087c0-9.223-7.479-16.696-16.696-16.696c-9.217,0-16.696,7.473-16.696,16.696
		v50.087H411.826z"/>
	<path style="fill:#2E8599;" d="M345.043,489.739v-50.087c0-9.223-7.479-16.696-16.696-16.696c-9.217,0-16.696,7.473-16.696,16.696
		v50.087H345.043z"/>
</g>
<g>
	<path style="fill:#4395A6;" d="M200.348,489.739v-50.087c0-9.223-7.479-16.696-16.696-16.696s-16.696,7.473-16.696,16.696v50.087
		H200.348z"/>
	<path style="fill:#4395A6;" d="M133.565,489.739v-50.087c0-9.223-7.479-16.696-16.696-16.696s-16.696,7.473-16.696,16.696v50.087
		H133.565z"/>
</g>
<path style="fill:#665247;" d="M395.13,55.652c-46.032,0-83.478,37.446-83.478,83.478s37.446,83.478,83.478,83.478
	s83.478-37.446,83.478-83.478S441.163,55.652,395.13,55.652z"/>
<g>
	<path style="fill:#DAE1E6;" d="M395.13,122.435c-9.217,0-16.696-7.473-16.696-16.696V38.957c0-9.223,7.479-16.696,16.696-16.696
		c9.217,0,16.696,7.473,16.696,16.696v66.783C411.826,114.962,404.348,122.435,395.13,122.435z"/>
	<path style="fill:#DAE1E6;" d="M308.468,206.087c-5.761,0-11.381-2.994-14.467-8.353c-4.609-7.984-1.88-18.196,6.108-22.804
		l57.848-33.397c7.967-4.615,18.206-1.885,22.804,6.108c4.609,7.984,1.88,18.196-6.108,22.804l-57.848,33.397
		C314.174,205.364,311.305,206.087,308.468,206.087z"/>
	<path style="fill:#DAE1E6;" d="M482.076,206.136c-2.837,0-5.707-0.722-8.337-2.245l-58.076-33.533
		c-7.989-4.609-10.717-14.82-6.108-22.804c4.609-8.001,14.826-10.717,22.804-6.108l58.076,33.533
		c7.989,4.609,10.717,14.82,6.108,22.804C493.457,203.142,487.837,206.136,482.076,206.136z"/>
</g>
<path style="fill:#EDF0F2;" d="M116.87,256C52.424,256,0,203.571,0,139.13s52.424-116.87,116.87-116.87s116.87,52.429,116.87,116.87
	S181.315,256,116.87,256z"/>
<path style="fill:#736056;" d="M116.87,55.652c-46.032,0-83.478,37.446-83.478,83.478s37.446,83.478,83.478,83.478
	s83.478-37.446,83.478-83.478S162.902,55.652,116.87,55.652z"/>
<g>
	<path style="fill:#EDF0F2;" d="M116.87,122.435c-9.217,0-16.696-7.473-16.696-16.696V38.957c0-9.223,7.479-16.696,16.696-16.696
		s16.696,7.473,16.696,16.696v66.783C133.565,114.962,126.087,122.435,116.87,122.435z"/>
	<path style="fill:#EDF0F2;" d="M30.207,206.087c-5.761,0-11.381-2.994-14.467-8.353c-4.609-7.984-1.88-18.196,6.108-22.804
		l57.848-33.397c7.967-4.615,18.206-1.885,22.804,6.108c4.609,7.984,1.88,18.196-6.108,22.804l-57.848,33.398
		C35.913,205.364,33.044,206.087,30.207,206.087z"/>
	<path style="fill:#EDF0F2;" d="M203.815,206.136c-2.837,0-5.707-0.722-8.337-2.245l-58.076-33.533
		c-7.989-4.609-10.717-14.82-6.108-22.804c4.609-8.001,14.826-10.717,22.804-6.108l58.076,33.533
		c7.989,4.609,10.717,14.82,6.108,22.804C215.196,203.142,209.576,206.136,203.815,206.136z"/>
</g>
<path style="fill:#B1BAC0;" d="M361.739,322.783c-9.206,0-16.696,7.49-16.696,16.696c0,9.206,7.49,16.696,16.696,16.696
	c9.206,0,16.696-7.49,16.696-16.696C378.435,330.272,370.945,322.783,361.739,322.783z"/>
<path style="fill:#EDF0F2;" d="M150.261,389.565c-27.619,0-50.087-22.468-50.087-50.087s22.468-50.087,50.087-50.087
	s50.087,22.468,50.087,50.087S177.88,389.565,150.261,389.565z"/>
<path style="fill:#C1C8CC;" d="M150.261,322.783c-9.206,0-16.696,7.49-16.696,16.696c0,9.206,7.49,16.696,16.696,16.696
	s16.696-7.49,16.696-16.696C166.957,330.272,159.467,322.783,150.261,322.783z"/>
<path style="fill:#EDF0F2;" d="M294.957,289.391h-77.913c-9.217,0-16.696-7.473-16.696-16.696c0-9.223,7.479-16.696,16.696-16.696
	h77.913c9.217,0,16.696,7.473,16.696,16.696C311.652,281.918,304.174,289.391,294.957,289.391z"/>
<path style="fill:#C9D3D9;" d="M294.957,256H256v33.391h38.957c9.217,0,16.696-7.473,16.696-16.696
	C311.652,263.473,304.174,256,294.957,256z"/>
<path style="fill:#4395A6;" d="M272.696,489.739v-50.087c0-9.223-7.479-16.696-16.696-16.696s-16.696,7.473-16.696,16.696v50.087
	H272.696z"/>
<path style="fill:#2E8599;" d="M272.696,489.739v-50.087c0-9.223-7.479-16.696-16.696-16.696v66.783H272.696z"/>
<g>
</g>
<g>
</g>
<g>
</g>
<g>
</g>
<g>
</g>
<g>
</g>
<g>
</g>
<g>
</g>
<g>
</g>
<g>
</g>
<g>
</g>
<g>
</g>
<g>
</g>
<g>
</g>
<g>
</g>
</svg>
